<svg width="82" height="82" viewBox="0 0 82 82" fill="none" xmlns="http://www.w3.org/2000/svg">
<rect width="82" height="82" rx="14" fill="#E8E2FA"/>
<path d="M28.6666 28V22C28.6666 20.4087 29.2988 18.8826 30.424 17.7574C31.5492 16.6321 33.0753 16 34.6666 16H46.6666C48.2579 16 49.784 16.6321 50.9093 17.7574C52.0345 18.8826 52.6666 20.4087 52.6666 22V28M13.6666 34C13.6666 32.4087 14.2988 30.8826 15.424 29.7574C16.5492 28.6321 18.0753 28 19.6666 28H61.6666C63.2579 28 64.784 28.6321 65.9093 29.7574C67.0345 30.8826 67.6666 32.4087 67.6666 34V61C67.6666 62.5913 67.0345 64.1174 65.9093 65.2426C64.784 66.3679 63.2579 67 61.6666 67H19.6666C18.0753 67 16.5492 66.3679 15.424 65.2426C14.2988 64.1174 13.6666 62.5913 13.6666 61V34Z" stroke="#6622C5" stroke-width="3" stroke-linecap="round" stroke-linejoin="round"/>
<path d="M13.6666 46C22.0414 50.2201 31.2887 52.4183 40.6666 52.4183C50.0445 52.4183 59.2919 50.2201 67.6666 46" stroke="#6622C5" stroke-width="3" stroke-linecap="round" stroke-linejoin="round"/>
</svg>
