<svg width="70" height="70" viewBox="0 0 70 70" fill="none" xmlns="http://www.w3.org/2000/svg">
<rect width="70" height="70" rx="35" fill="#E8E2FA"/>
<path d="M53.5 53.4971H16.5" stroke="#8C3CFC" stroke-width="1.5" stroke-linecap="round"/>
<path d="M44.25 53.4994V23.8999C44.25 20.4108 44.25 18.6682 43.1659 17.5841C42.0818 16.5 40.3391 16.5 36.85 16.5H33.15C29.6609 16.5 27.9182 16.5 26.8341 17.5841C25.75 18.6682 25.75 20.4108 25.75 23.8999V53.4994" stroke="#8C3CFC" stroke-width="2"/>
<path d="M52.7877 41.7256V53.25H50.5123V41.7256H52.7877ZM19.4879 50.0498V53.25H17.2125V50.0498H19.4879ZM18.3502 48.6621C18.6518 48.6622 18.9406 48.7828 19.1539 48.9961C19.3072 49.1494 19.4116 49.3417 19.4586 49.5498H17.2418C17.2887 49.3418 17.3924 49.1493 17.5455 48.9961C17.7588 48.7828 18.0485 48.6621 18.3502 48.6621ZM19.4586 42.6504C19.4116 42.8585 19.3072 43.0509 19.1539 43.2041C18.9406 43.4173 18.6518 43.5371 18.3502 43.5371C18.0485 43.5371 17.7588 43.4174 17.5455 43.2041C17.3924 43.0509 17.2888 42.8583 17.2418 42.6504H19.4586ZM19.4879 34.3252V42.1504H17.2125V34.3252H19.4879ZM51.65 40.3379C51.9517 40.3379 52.2414 40.4576 52.4547 40.6709C52.608 40.8243 52.7115 41.0173 52.7584 41.2256H50.5416C50.5885 41.0173 50.692 40.8243 50.8453 40.6709C51.0586 40.4576 51.3483 40.3379 51.65 40.3379ZM52.7584 34.3252C52.7114 34.5334 52.608 34.7266 52.4547 34.8799C52.2414 35.0932 51.9517 35.2129 51.65 35.2129C51.3483 35.2129 51.0586 35.0932 50.8453 34.8799C50.692 34.7266 50.5885 34.5334 50.5416 34.3252H52.7584ZM52.1012 28.8262C52.4644 29.4561 52.6258 30.1523 52.7037 30.9199C52.7818 31.7022 52.7863 32.6628 52.7867 33.8252H50.5123C50.5119 32.6381 50.5065 31.8011 50.441 31.1514C50.3904 30.6522 50.3085 30.3307 50.2018 30.0967L52.1012 28.8262ZM19.7975 30.0967C19.6909 30.3305 19.6098 30.6518 19.5592 31.1504C19.4918 31.8006 19.4891 32.6371 19.4889 33.8252H17.2125C17.2127 32.6626 17.2168 31.7027 17.2965 30.9209V30.9199C17.3744 30.1524 17.5341 29.4552 17.8961 28.8252L19.7975 30.0967ZM20.4264 29.3203C20.2965 29.4275 20.1771 29.5469 20.0699 29.6768L18.1715 28.4082C18.4517 28.0343 18.7837 27.7025 19.1578 27.4219L20.4264 29.3203ZM50.8414 27.4219C51.2157 27.7015 51.5481 28.0332 51.8268 28.4072L49.9303 29.6758C49.8236 29.5454 49.7049 29.4268 49.5748 29.3193L50.8414 27.4219ZM24.5748 28.7383C23.7051 28.7386 23.0233 28.7412 22.4654 28.7686L21.901 28.8096C21.4019 28.8602 21.0803 28.9412 20.8463 29.0479L19.5748 27.1465C20.205 26.7844 20.9027 26.6248 21.6705 26.5469L21.6695 26.5459C22.4518 26.4678 23.4124 26.4633 24.5748 26.4629V28.7383ZM45.4254 26.4629C46.588 26.4631 47.5479 26.4672 48.3297 26.5469C49.0988 26.6248 49.7946 26.7846 50.4244 27.1465L49.1539 29.0479C48.9594 28.9595 48.705 28.8885 48.3385 28.8379L48.0992 28.8096C47.4491 28.7423 46.6131 28.7395 45.4254 28.7393V26.4629Z" fill="#8C3CFC" stroke="#8C3CFC" stroke-width="0.5"/>
<path d="M35 53.4988V47.9489M31.3 22.0493H38.7M31.3 38.699H32.225M38.7 38.699H35.925M38.7 27.5992H37.775M31.3 27.5992H34.075M31.3 33.1491H38.7" stroke="#8C3CFC" stroke-width="1.5" stroke-linecap="round"/>
</svg>
