<svg width="70" height="70" viewBox="0 0 70 70" fill="none" xmlns="http://www.w3.org/2000/svg">
<rect width="70" height="70" rx="35" fill="#E8E2FA"/>
<path d="M40.0519 29.2607C39.4882 28.5492 38.7211 28.0175 37.8479 27.7328L35.5931 27.0161C35.42 26.9558 35.2702 26.8447 35.1642 26.6979C35.0583 26.5511 35.0014 26.3758 35.0014 26.1961C35.0014 26.0165 35.0583 25.8412 35.1642 25.6944C35.2702 25.5476 35.42 25.4365 35.5931 25.3762L37.8479 24.6595C38.5151 24.4342 39.121 24.0632 39.6198 23.5748C40.1185 23.0863 40.4968 22.4932 40.7261 21.8405L40.7441 21.7861L41.4771 19.583C41.5381 19.4126 41.6517 19.265 41.8022 19.1606C41.9528 19.0561 42.1328 19 42.3174 19C42.502 19 42.682 19.0561 42.8325 19.1606C42.9831 19.265 43.0967 19.4126 43.1576 19.583L43.889 21.7861C44.1177 22.4557 44.5027 23.064 45.0137 23.5628C45.5247 24.0615 46.1475 24.437 46.8327 24.6595L49.0858 25.3762L49.1317 25.3874C49.3048 25.4477 49.4546 25.5588 49.5605 25.7056C49.6664 25.8524 49.7233 26.0277 49.7233 26.2073C49.7233 26.387 49.6664 26.5623 49.5605 26.7091C49.4546 26.8559 49.3048 26.967 49.1317 27.0273L46.8769 27.744C46.1919 27.9667 45.5695 28.3423 45.0588 28.841C44.5481 29.3398 44.1633 29.948 43.9348 30.6174L43.2018 32.8205L43.1805 32.8749C43.1098 33.0359 42.9911 33.1722 42.8398 33.2662C42.6885 33.3601 42.5118 33.4072 42.3327 33.4013C42.1536 33.3955 41.9805 33.3369 41.8361 33.2332C41.6916 33.1296 41.5825 32.9857 41.523 32.8205L40.7899 30.6174C40.6262 30.1271 40.3771 29.6681 40.0536 29.2607M52.6448 35.3419L51.3914 34.9451C51.011 34.8208 50.6655 34.6117 50.3821 34.3343C50.0987 34.0569 49.8851 33.7188 49.7584 33.3468L49.3493 32.1245C49.3154 32.03 49.2523 31.9481 49.1688 31.8902C49.0853 31.8323 48.9854 31.8012 48.8829 31.8012C48.7805 31.8012 48.6806 31.8323 48.5971 31.8902C48.5136 31.9481 48.4505 32.03 48.4166 32.1245L48.0108 33.3468C47.8864 33.7164 47.6763 34.053 47.397 34.3302C47.1178 34.6074 46.7768 34.8179 46.4007 34.9451L45.149 35.3419C45.0523 35.375 44.9686 35.4367 44.9093 35.5184C44.8501 35.6001 44.8183 35.6977 44.8183 35.7979C44.8183 35.898 44.8501 35.9957 44.9093 36.0774C44.9686 36.159 45.0523 36.2207 45.149 36.2538L46.4007 36.6522C46.7822 36.7766 47.1287 36.9863 47.4127 37.2645C47.6968 37.5428 47.9105 37.8821 48.037 38.2553L48.4428 39.4776C48.4767 39.5721 48.5397 39.654 48.6233 39.7119C48.7068 39.7698 48.8067 39.801 48.9091 39.801C49.0115 39.801 49.1114 39.7698 49.195 39.7119C49.2785 39.654 49.3416 39.5721 49.3755 39.4776L49.7829 38.2553C49.9098 37.8831 50.1236 37.545 50.4073 37.2676C50.6911 36.9902 51.0369 36.7811 51.4175 36.657L52.6693 36.2602C52.766 36.2271 52.8497 36.1654 52.9089 36.0838C52.9682 36.0021 53 35.9044 53 35.8043C53 35.7041 52.9682 35.6065 52.9089 35.5248C52.8497 35.4431 52.766 35.3814 52.6693 35.3483L52.6448 35.3419ZM33.4806 25.4018H21.4998C20.3064 25.4018 19.1618 25.8653 18.318 26.6904C17.4741 27.5155 17 28.6346 17 29.8015V46.6003C17 47.1781 17.1164 47.7502 17.3425 48.284C17.5687 48.8178 17.9001 49.3028 18.318 49.7114C18.7358 50.1199 19.2318 50.444 19.7778 50.6651C20.3237 50.8862 20.9089 51 21.4998 51H45.2259C45.8168 51 46.4019 50.8862 46.9478 50.6651C47.4938 50.444 47.9898 50.1199 48.4077 49.7114C48.8255 49.3028 49.157 48.8178 49.3831 48.284C49.6092 47.7502 49.7256 47.1781 49.7256 46.6003V41.2903C49.3165 41.4754 48.8575 41.5276 48.4158 41.4392C47.9742 41.3509 47.573 41.1265 47.2712 40.7991V46.6003C47.2712 47.7042 46.3549 48.6002 45.2259 48.6002H21.4998C20.3707 48.6002 19.4544 47.7042 19.4544 46.6003V29.8015C19.4544 28.6976 20.3707 27.8016 21.4998 27.8016H33.9732C33.9192 27.7286 33.8684 27.6533 33.821 27.576C33.5993 27.2626 33.4534 26.904 33.3945 26.5273C33.3355 26.1506 33.365 25.7657 33.4806 25.4018ZM23.5451 33.0013C23.5451 32.683 23.6744 32.3778 23.9046 32.1528C24.1347 31.9278 24.4469 31.8013 24.7723 31.8013H32.1356C32.4611 31.8013 32.7732 31.9278 33.0034 32.1528C33.2335 32.3778 33.3628 32.683 33.3628 33.0013C33.3628 33.3195 33.2335 33.6247 33.0034 33.8497C32.7732 34.0748 32.4611 34.2012 32.1356 34.2012H24.7723C24.4469 34.2012 24.1347 34.0748 23.9046 33.8497C23.6744 33.6247 23.5451 33.3195 23.5451 33.0013ZM24.7723 36.601C24.4469 36.601 24.1347 36.7274 23.9046 36.9525C23.6744 37.1775 23.5451 37.4827 23.5451 37.8009C23.5451 38.1192 23.6744 38.4244 23.9046 38.6494C24.1347 38.8744 24.4469 39.0008 24.7723 39.0008H38.6807C39.0062 39.0008 39.3184 38.8744 39.5485 38.6494C39.7786 38.4244 39.9079 38.1192 39.9079 37.8009C39.9079 37.4827 39.7786 37.1775 39.5485 36.9525C39.3184 36.7274 39.0062 36.601 38.6807 36.601H24.7723ZM23.5451 42.6006C23.5451 42.2824 23.6744 41.9771 23.9046 41.7521C24.1347 41.5271 24.4469 41.4007 24.7723 41.4007H35.4082C35.7336 41.4007 36.0458 41.5271 36.2759 41.7521C36.5061 41.9771 36.6354 42.2824 36.6354 42.6006C36.6354 42.9188 36.5061 43.224 36.2759 43.4491C36.0458 43.6741 35.7336 43.8005 35.4082 43.8005H24.7723C24.4469 43.8005 24.1347 43.6741 23.9046 43.4491C23.6744 43.224 23.5451 42.9188 23.5451 42.6006Z" fill="#8C3CFC"/>
</svg>
