<svg width="80" height="80" viewBox="0 0 80 80" fill="none" xmlns="http://www.w3.org/2000/svg">
<rect width="80" height="80" rx="40" fill="#E8E2FA"/>
<path d="M59.1062 47.4429C62.6282 47.1348 63.6319 44.1652 63.5028 42.2032L62.7633 33.7502C62.4398 30.2153 59.4855 29.2245 57.5235 29.3535L52.7207 29.7879L48.7526 26.4583C45.8416 24.0157 42.8707 24.1337 40.5343 25.1756L28.0239 26.2702L22.8816 32.3985L20.8939 32.5582C17.359 32.8817 16.3682 35.836 16.4972 37.798L17.2368 46.251C17.3699 47.7725 18.0014 48.8245 18.844 49.5316C19.9318 50.4444 21.3776 50.7438 22.4765 50.6476L30.0971 49.9667L35.5973 54.5819C38.2018 56.7674 40.8821 56.249 42.6941 55.0541C44.811 56.0472 46.8665 55.5267 48.3294 54.5611C51.2184 55.9409 53.9968 54.4344 55.3209 52.8563L59.1777 48.2601L58.2737 47.5016L59.1062 47.4429ZM52.2567 50.2852C51.6782 50.9746 50.6801 51.573 49.4391 50.5317L47.907 49.2461L46.6214 50.7782C46.0429 51.4677 45.0447 52.066 43.8038 51.0247L42.2717 49.7392L40.9861 51.2712C40.4076 51.9607 39.4094 52.5591 38.1684 51.5178L31.4119 45.8484L22.17 46.6569C21.3222 46.7027 21.265 46.2109 21.2379 45.9009L20.4879 37.4914C20.4422 36.6436 20.934 36.5864 21.244 36.5593L24.8916 36.226L30.0339 30.0976L35.6692 29.6046L33.6252 32.0406C32.0696 33.8944 30.9941 37.6653 34.3647 40.4936C37.7353 43.3219 41.2622 41.6079 42.8177 39.7541L53.5423 48.7531L52.2567 50.2852ZM58.7561 43.4419L53.9532 43.8763L42.3247 34.1187L39.7535 37.1829C39.175 37.8724 38.1769 38.4707 36.9359 37.4294C35.6949 36.3881 36.1108 35.3012 36.6893 34.6118L40.5461 30.0155C41.1374 29.3107 43.3777 27.1699 46.1814 29.5225L51.4058 33.9063L57.8301 33.3442C58.6779 33.2985 58.7351 33.7903 58.7622 34.1003L59.5121 42.5098C59.5579 43.3575 59.0661 43.4147 58.7561 43.4419Z" fill="#8C3CFC"/>
</svg>
