<svg width="20" height="20" viewBox="0 0 20 20" fill="none" xmlns="http://www.w3.org/2000/svg">
<path d="M3.54459 10.3833C3.74661 10.1818 4.02029 10.0687 4.30562 10.0687C4.59095 10.0687 4.86463 10.1818 5.06665 10.3833C5.16645 10.483 5.24563 10.6014 5.29965 10.7317C5.35367 10.862 5.38147 11.0017 5.38147 11.1428C5.38147 11.2839 5.35367 11.4236 5.29965 11.5539C5.24563 11.6842 5.16645 11.8026 5.06665 11.9023L2.78357 14.1823C2.58353 14.3815 2.4248 14.6183 2.3165 14.8791C2.20819 15.1398 2.15244 15.4194 2.15244 15.7018C2.15244 15.9841 2.20819 16.2637 2.3165 16.5244C2.4248 16.7852 2.58353 17.022 2.78357 17.2212C3.1876 17.6243 3.73497 17.8506 4.30562 17.8506C4.87628 17.8506 5.42364 17.6243 5.82768 17.2212L11.1538 11.9023C11.2536 11.8026 11.3327 11.6842 11.3868 11.5539C11.4408 11.4236 11.4686 11.2839 11.4686 11.1428C11.4686 11.0017 11.4408 10.862 11.3868 10.7317C11.3327 10.6014 11.2536 10.483 11.1538 10.3833C11.0538 10.2836 10.9745 10.1652 10.9204 10.0348C10.8662 9.90434 10.8384 9.76453 10.8384 9.62333C10.8384 9.48213 10.8662 9.34231 10.9204 9.21189C10.9745 9.08148 11.0538 8.96302 11.1538 8.86331C11.3558 8.6618 11.6295 8.54863 11.9148 8.54863C12.2001 8.54863 12.4738 8.6618 12.6758 8.86331C12.9753 9.16257 13.2129 9.51791 13.375 9.90904C13.537 10.3002 13.6205 10.7194 13.6205 11.1428C13.6205 11.5662 13.537 11.9854 13.375 12.3766C13.2129 12.7677 12.9753 13.123 12.6758 13.4223L7.34862 18.7413C6.54055 19.5473 5.44582 20 4.30451 20C3.1632 20 2.06847 19.5473 1.2604 18.7413C0.860855 18.3425 0.543875 17.8688 0.327599 17.3473C0.111324 16.8259 0 16.2669 0 15.7023C0 15.1378 0.111324 14.5788 0.327599 14.0573C0.543875 13.5358 0.860855 13.0622 1.2604 12.6634L3.54459 10.3822V10.3833ZM16.4543 9.61666C16.2523 9.81818 15.9786 9.93135 15.6933 9.93135C15.4079 9.93135 15.1343 9.81818 14.9322 9.61666C14.8324 9.51697 14.7533 9.39859 14.6992 9.26827C14.6452 9.13796 14.6174 8.99827 14.6174 8.8572C14.6174 8.71613 14.6452 8.57645 14.6992 8.44613C14.7533 8.31582 14.8324 8.19743 14.9322 8.09775L17.2153 5.81771C17.4154 5.61846 17.5741 5.38167 17.6824 5.12092C17.7907 4.86017 17.8464 4.5806 17.8464 4.29824C17.8464 4.01589 17.7907 3.73631 17.6824 3.47556C17.5741 3.21481 17.4154 2.97802 17.2153 2.77877C16.8113 2.37573 16.2639 2.1494 15.6933 2.1494C15.1226 2.1494 14.5753 2.37573 14.1712 2.77877L8.84624 8.09775C8.74643 8.19743 8.66726 8.31582 8.61324 8.44613C8.55922 8.57645 8.53142 8.71613 8.53142 8.8572C8.53142 8.99827 8.55922 9.13796 8.61324 9.26827C8.66726 9.39859 8.74643 9.51697 8.84624 9.61666C8.94621 9.71637 9.02552 9.83482 9.07964 9.96524C9.13376 10.0957 9.16161 10.2355 9.16161 10.3767C9.16161 10.5179 9.13376 10.6577 9.07964 10.7881C9.02552 10.9185 8.94621 11.037 8.84624 11.1367C8.64422 11.3382 8.37054 11.4514 8.08521 11.4514C7.79988 11.4514 7.5262 11.3382 7.32418 11.1367C7.02471 10.8374 6.78713 10.4821 6.62505 10.091C6.46296 9.69983 6.37953 9.28059 6.37953 8.8572C6.37953 8.43381 6.46296 8.01457 6.62505 7.62345C6.78713 7.23232 7.02471 6.87698 7.32418 6.57772L12.6514 1.25875C13.4595 0.452673 14.5542 0 15.6955 0C16.8368 0 17.9315 0.452673 18.7396 1.25875C19.1391 1.65754 19.4561 2.13122 19.6724 2.65268C19.8887 3.17414 20 3.73314 20 4.29769C20 4.86223 19.8887 5.42123 19.6724 5.94269C19.4561 6.46415 19.1391 6.93783 18.7396 7.33662L16.4543 9.61777V9.61666Z" fill="black"/>
</svg>
