<svg width="70" height="70" viewBox="0 0 70 70" fill="none" xmlns="http://www.w3.org/2000/svg">
<rect width="70" height="70" rx="35" fill="#E8E2FA"/>
<path d="M34.9987 32.9287C38.4308 32.9287 41.213 30.1465 41.213 26.7144C41.213 23.2823 38.4308 20.5 34.9987 20.5C31.5666 20.5 28.7843 23.2823 28.7843 26.7144C28.7843 30.1465 31.5666 32.9287 34.9987 32.9287Z" stroke="#8C3CFC" stroke-width="3" stroke-linecap="round"/>
<path d="M41.7681 26.7144C42.0381 26.2394 42.3995 25.8226 42.8313 25.4878C43.2631 25.1531 43.7568 24.907 44.2841 24.7639C44.8114 24.6207 45.3618 24.5833 45.9036 24.6537C46.4454 24.7241 46.9679 24.901 47.4411 25.1742C47.9142 25.4474 48.3287 25.8115 48.6606 26.2455C48.9925 26.6795 49.2352 27.1749 49.3749 27.7031C49.5145 28.2313 49.5483 28.782 49.4743 29.3233C49.4003 29.8646 49.2199 30.386 48.9436 30.8573C48.3903 31.8011 47.4862 32.4877 46.4285 32.7673C45.3708 33.047 44.2455 32.8969 43.2981 32.3499C42.3506 31.8029 41.658 30.9033 41.3714 29.8475C41.0848 28.7917 41.2274 27.6654 41.7681 26.7144ZM21.0536 26.7144C21.3236 26.2394 21.6849 25.8226 22.1167 25.4878C22.5485 25.1531 23.0423 24.907 23.5696 24.7639C24.0969 24.6207 24.6472 24.5833 25.1891 24.6537C25.7309 24.7241 26.2534 24.901 26.7266 25.1742C27.1997 25.4474 27.6142 25.8115 27.9461 26.2455C28.2779 26.6795 28.5207 27.1749 28.6603 27.7031C28.8 28.2313 28.8338 28.782 28.7598 29.3233C28.6858 29.8646 28.5054 30.386 28.2291 30.8573C27.6758 31.8011 26.7717 32.4877 25.714 32.7673C24.6563 33.047 23.531 32.8969 22.5836 32.3499C21.6361 31.8029 20.9435 30.9033 20.6569 29.8475C20.3702 28.7917 20.5128 27.6654 21.0536 26.7144Z" stroke="#8C3CFC" stroke-width="3"/>
<path d="M45.1114 47.429L43.0814 47.8371L43.4128 49.5005H45.1114V47.429ZM40.7572 40.616L39.5061 38.9651L37.1094 40.7859L39.6656 42.3747L40.7572 40.616ZM51.2968 45.3576H45.1135L45.1114 49.5005H51.2968V45.3576ZM51.1103 45.8506C51.0883 45.7816 51.0847 45.708 51.1 45.6372C51.111 45.5635 51.1418 45.494 51.1891 45.4363C51.2553 45.3534 51.3113 45.3576 51.2968 45.3576V49.5005C53.6707 49.5005 56.0052 47.2633 55.015 44.4669L51.1103 45.8506ZM45.3558 41.2147C48.7572 41.2147 50.3335 43.6611 51.1103 45.8506L55.015 44.4669C54.0518 41.7512 51.4625 37.0718 45.3558 37.0718V41.2147ZM42.0125 42.2649C42.808 41.66 43.8685 41.2147 45.3558 41.2147V37.0718C42.9488 37.0718 41.012 37.8216 39.5061 38.9651L42.0125 42.2649ZM39.6656 42.3747C41.8178 43.7129 42.7189 46.0453 43.0793 47.8371L47.1394 47.021C46.6899 44.7776 45.4325 41.0821 41.853 38.8553L39.6656 42.3747ZM29.2399 40.614L30.3316 42.3747L32.8878 40.7859L30.4911 38.9651L29.2399 40.614ZM24.8858 47.429V49.5005H26.5823L26.9179 47.8371L24.8858 47.429ZM24.6413 41.2147C26.1286 41.2147 27.1892 41.66 27.9846 42.2649L30.4911 38.9651C28.9852 37.8216 27.0484 37.0718 24.6413 37.0718V41.2147ZM18.8868 45.8506C19.6636 43.6611 21.24 41.2147 24.6413 41.2147V37.0718C18.5347 37.0718 15.9454 41.7512 14.9821 44.4669L18.8868 45.8506ZM18.7004 45.3576C18.688 45.3576 18.7418 45.3534 18.8102 45.4363C18.8567 45.4943 18.8867 45.5637 18.8972 45.6372C18.9124 45.708 18.9089 45.7816 18.8868 45.8506L14.9821 44.4669C13.9941 47.2633 16.3286 49.5005 18.7025 49.5005L18.7004 45.3576ZM24.8858 45.3576H18.7004L18.7025 49.5005H24.8858V45.3576ZM26.9158 47.8371C27.2783 46.0453 28.1794 43.7129 30.3337 42.3747L28.1421 38.8532C24.5626 41.08 23.3052 44.7776 22.8537 47.0189L26.9158 47.8371Z" fill="#8C3CFC"/>
<path d="M34.9986 39.1431C42.3979 39.1431 44.5108 44.4273 45.1135 47.4475C45.3393 48.5682 44.43 49.5003 43.2845 49.5003H26.7128C25.5694 49.5003 24.658 48.5682 24.8837 47.4475C25.4865 44.4253 27.5994 39.1431 34.9986 39.1431Z" stroke="#8C3CFC" stroke-width="3" stroke-linecap="round"/>
</svg>
