<svg width="80" height="80" viewBox="0 0 80 80" fill="none" xmlns="http://www.w3.org/2000/svg">
<rect width="80" height="80" rx="40" fill="#E8E2FA"/>
<path d="M26.2195 19.6089L24.1075 21.7179L27.25 24.8589L29.359 22.7499L26.2195 19.6089ZM53.782 19.6089L50.6395 22.7499L52.75 24.8589L55.891 21.7194L53.782 19.6089ZM40 20.5449C39.505 20.5489 39.005 20.5809 38.5 20.6409H38.455C32.371 21.3384 27.529 26.2539 26.6875 32.3109C26.0155 37.1859 28.0255 41.6064 31.375 44.4534C32.7449 45.6229 33.6716 47.2274 34 48.9984V57.9984H37.42C37.942 58.8939 38.8945 59.4984 40 59.4984C41.1055 59.4984 42.058 58.8939 42.58 57.9984H46V51.9984H46.141V50.2164C46.141 48.0174 47.284 45.8004 49.141 44.0769C51.625 41.5899 53.5 38.0574 53.5 33.9999C53.5 26.5899 47.401 20.4759 40 20.5449ZM40 23.5449C45.7975 23.4639 50.5 28.2099 50.5 33.9999C50.5 37.1409 49.045 39.9069 47.0305 41.9199L47.0785 41.9679C45.0774 43.8146 43.783 46.3014 43.4185 48.9999H36.8575C36.5275 46.4289 35.425 43.9404 33.3415 42.1554C30.691 39.9054 29.1115 36.5154 29.6395 32.6874C30.295 27.9624 34.129 24.1629 38.827 23.6424C39.2149 23.5886 39.6055 23.5565 39.997 23.5464L40 23.5449ZM19 33.9999V36.9999H23.5V33.9999H19ZM56.5 33.9999V36.9999H61V33.9999H56.5ZM27.25 46.1409L24.109 49.2804L26.2195 51.3909L29.3575 48.2499L27.25 46.1409ZM52.75 46.1409L50.641 48.2499L53.7805 51.3909L55.891 49.2804L52.75 46.1409ZM37 51.9999H43V54.9999H37V51.9999Z" fill="#8C3CFC"/>
</svg>
