<svg width="15" height="21" viewBox="0 0 15 21" fill="none" xmlns="http://www.w3.org/2000/svg">
<path d="M6.51888 20.1668C6.41259 20.1666 6.30713 20.148 6.20722 20.1118C6.01448 20.0412 5.85101 19.908 5.74298 19.7335C5.63495 19.559 5.58861 19.3532 5.61138 19.1493L6.31722 12.6501H0.918049C0.751519 12.6503 0.588066 12.6052 0.445246 12.5196C0.302425 12.4339 0.185633 12.311 0.107413 12.164C0.0291923 12.017 -0.00750091 11.8514 0.00127355 11.6851C0.010048 11.5188 0.0639588 11.3581 0.157216 11.2201L7.38972 0.403422C7.5041 0.234149 7.67176 0.107939 7.86607 0.0448308C8.06037 -0.0182776 8.27019 -0.0146671 8.46221 0.055089C8.64681 0.123622 8.80444 0.249775 8.91175 0.414871C9.01906 0.579968 9.07036 0.775232 9.05805 0.971756L8.35221 7.51676H13.7514C13.9179 7.5165 14.0814 7.56162 14.2242 7.64727C14.367 7.73291 14.4838 7.85584 14.562 8.00286C14.6402 8.14987 14.6769 8.31542 14.6682 8.48172C14.6594 8.64802 14.6055 8.80879 14.5122 8.94676L7.27971 19.7634C7.19563 19.8878 7.08227 19.9897 6.94961 20.06C6.81694 20.1303 6.66903 20.167 6.51888 20.1668Z" fill="black"/>
</svg>
