<svg width="1061" height="745" viewBox="0 0 1061 745" fill="none" xmlns="http://www.w3.org/2000/svg">
<path d="M526.56 459.701C505.44 460.169 488.386 477.577 488.233 499.11C488.121 514.909 497.137 528.616 510.283 535.1L483.099 631.524C482.741 632.794 483.69 634.057 485.009 634.067L525.319 634.353L524.565 740.47L227.976 738.364L228.518 737.585L526.72 308.678L527.642 307.351L526.56 459.701Z" fill="#333968"/>
<path d="M527.354 459.707C548.464 460.475 565.268 478.123 565.115 499.657C565.003 515.455 555.793 529.032 542.555 535.329L568.367 632.129C568.708 633.405 567.741 634.654 566.421 634.645L526.113 634.358L525.359 740.476L821.946 742.583L821.415 741.797L529.339 308.696L528.436 307.357L527.354 459.707Z" fill="#7A5BC8"/>
<path d="M848.315 177.953C848.568 161.208 834.774 147.469 817.79 147.549L538.047 148.863L842.003 595.297L848.315 177.953Z" fill="#7A5BC8" stroke="#7B5BC7" stroke-linejoin="round"/>
<path d="M215.506 171.615C215.49 154.82 229.556 141.259 246.586 141.652L527.112 148.115L215.898 589.541L215.506 171.615Z" fill="#333968" stroke="#343B6A" stroke-linejoin="round"/>
<path d="M424.459 63.0807C424.526 53.6921 432.191 46.1352 441.579 46.2019L626.63 47.5163C636.019 47.583 643.576 55.248 643.509 64.6366L643.178 111.153L596.411 110.821L596.57 88.4646C596.589 85.7033 594.367 83.4488 591.605 83.4292L537.808 83.0471L478.245 82.624C475.484 82.6044 473.23 84.827 473.21 87.5884L473.051 109.945L424.129 109.597L424.459 63.0807Z" fill="#333968"/>
</svg>
