<svg width="16" height="9" viewBox="0 0 16 9" fill="none" xmlns="http://www.w3.org/2000/svg">
<path d="M7.73584 8.21387C7.61078 8.21387 7.51057 8.17603 7.40381 8.06934L0.811035 1.47754C0.701865 1.36832 0.66653 1.26962 0.666504 1.15332C0.666504 1.03701 0.701925 0.938314 0.811035 0.829102C0.915081 0.725055 1.01755 0.684664 1.15186 0.68457C1.2864 0.68457 1.38949 0.724935 1.49365 0.829102L1.49463 0.830078L7.26514 6.56836L7.73682 7.03711L13.978 0.795898C14.0817 0.692244 14.1703 0.663084 14.2778 0.666992C14.4035 0.67159 14.5117 0.714362 14.6265 0.829102C14.7306 0.93326 14.771 1.03539 14.771 1.16992C14.771 1.30443 14.7306 1.40659 14.6265 1.51074L8.06787 8.06934C7.96111 8.17609 7.86088 8.21383 7.73584 8.21387Z" fill="#8C3CFC" stroke="#8C3CFC" stroke-width="1.33333"/>
</svg>
