<svg width="80" height="80" viewBox="0 0 80 80" fill="none" xmlns="http://www.w3.org/2000/svg">
<rect width="80" height="80" rx="40" fill="#E8E2FA"/>
<path d="M23.1072 24.1895H56.8923C57.6774 24.1895 58.3524 24.4715 58.9402 25.0596V25.0605C59.5283 25.6484 59.8113 26.3233 59.8113 27.1084V52.8926C59.8113 53.5762 59.5951 54.1763 59.1472 54.708L58.9412 54.9316C58.3534 55.5177 57.678 55.7998 56.8923 55.7998H23.1072C22.3256 55.7997 21.6536 55.5184 21.0681 54.9326C20.4823 54.347 20.2009 53.6744 20.2009 52.8926V27.1084C20.2009 26.3228 20.4823 25.6473 21.0681 25.0596H21.0691C21.6547 24.4717 22.3261 24.1895 23.1072 24.1895ZM22.6072 27.2139V53.3926H57.3923V29.2051L56.6179 29.7158L40.6697 40.2148C40.5331 40.2867 40.409 40.3445 40.2966 40.3887C40.2296 40.415 40.1341 40.4355 39.9998 40.4355C39.8654 40.4355 39.7699 40.415 39.7029 40.3887C39.5894 40.3441 39.464 40.2858 39.3259 40.2129L23.6072 29.8633V27.8691L39.7263 38.4258L39.9998 38.6055L40.2732 38.4268L56.9656 27.5264L58.3728 26.6084H21.6814L22.6072 27.2139Z" fill="#8C3CFC" stroke="#8C3CFC"/>
</svg>
