<svg width="92" height="92" viewBox="0 0 92 92" fill="none" xmlns="http://www.w3.org/2000/svg">
<rect x="0.5" width="91" height="92" rx="18" fill="#E8E2FA"/>
<path d="M46.4311 40.5732C44.8775 40.5732 43.3876 41.1904 42.289 42.2889C41.1905 43.3875 40.5733 44.8774 40.5733 46.431C40.5733 47.9846 41.1905 49.4745 42.289 50.5731C43.3876 51.6716 44.8775 52.2888 46.4311 52.2888C47.9847 52.2888 49.4746 51.6716 50.5732 50.5731C51.6717 49.4745 52.2889 47.9846 52.2889 46.431C52.2889 44.8774 51.6717 43.3875 50.5732 42.2889C49.4746 41.1904 47.9847 40.5732 46.4311 40.5732Z" fill="#8C3CFC"/>
<path d="M48.3837 30.9471V26.9053H44.4785V30.9471C41.0419 31.3829 37.8477 32.9487 35.3981 35.3982C32.9486 37.8477 31.3829 41.042 30.947 44.4786H26.9052V48.3838H30.947C31.3829 51.8204 32.9486 55.0146 35.3981 57.4641C37.8477 59.9137 41.0419 61.4795 44.4785 61.9153V65.9571H48.3837V61.9153C51.8203 61.4795 55.0146 59.9137 57.4641 57.4641C59.9136 55.0146 61.4794 51.8204 61.9152 48.3838H65.957V44.4786H61.9152C61.4794 41.042 59.9136 37.8477 57.4641 35.3982C55.0146 32.9487 51.8203 31.3829 48.3837 30.9471ZM46.4311 58.1467C39.968 58.1467 34.7156 52.8943 34.7156 46.4312C34.7156 39.9681 39.968 34.7156 46.4311 34.7156C52.8942 34.7156 58.1467 39.9681 58.1467 46.4312C58.1467 52.8943 52.8942 58.1467 46.4311 58.1467Z" fill="#8C3CFC"/>
</svg>
