<svg width="80" height="80" viewBox="0 0 80 80" fill="none" xmlns="http://www.w3.org/2000/svg">
<rect width="80" height="80" rx="40" fill="#E8E2FA"/>
<path d="M41.47 52.505C41.85 52.1217 42.04 51.655 42.04 51.105C42.04 50.5517 41.8483 50.085 41.465 49.705C41.085 49.325 40.6183 49.135 40.065 49.135C39.5117 49.135 39.045 49.3258 38.665 49.7075C38.285 50.0892 38.0958 50.5558 38.0975 51.1075C38.0975 51.6608 38.2875 52.1275 38.6675 52.5075C39.0508 52.8875 39.5183 53.0775 40.07 53.0775C40.6217 53.0775 41.0883 52.8858 41.47 52.5025M38.775 44.8H41.19C41.2533 43.7133 41.4575 42.83 41.8025 42.15C42.1475 41.4717 42.8567 40.605 43.93 39.55C45.0467 38.435 45.8767 37.4358 46.42 36.5525C46.9633 35.6692 47.2358 34.6475 47.2375 33.4875C47.2375 31.5175 46.5458 29.9475 45.1625 28.7775C43.7775 27.6075 42.1392 27.0225 40.2475 27.0225C38.4492 27.0225 36.9225 27.5108 35.6675 28.4875C34.4125 29.4658 33.4933 30.5892 32.91 31.8575L35.21 32.81C35.61 31.9 36.1825 31.0958 36.9275 30.3975C37.6725 29.6975 38.7475 29.3475 40.1525 29.3475C41.7725 29.3475 42.9558 29.7925 43.7025 30.6825C44.4508 31.5725 44.825 32.5508 44.825 33.6175C44.825 34.4842 44.5908 35.2575 44.1225 35.9375C43.6558 36.6192 43.0475 37.3042 42.2975 37.9925C40.8475 39.3292 39.8975 40.4625 39.4475 41.3925C38.9975 42.3225 38.7733 43.4583 38.775 44.8ZM40.0075 62.5C36.8975 62.5 33.9725 61.91 31.2325 60.73C28.4942 59.5483 26.1117 57.945 24.085 55.92C22.0583 53.895 20.4542 51.515 19.2725 48.78C18.0908 46.045 17.5 43.1208 17.5 40.0075C17.5 36.8942 18.0908 33.9692 19.2725 31.2325C20.4525 28.4942 22.0533 26.1117 24.075 24.085C26.0967 22.0583 28.4775 20.4542 31.2175 19.2725C33.9575 18.0908 36.8825 17.5 39.9925 17.5C43.1025 17.5 46.0275 18.0908 48.7675 19.2725C51.5058 20.4525 53.8883 22.0542 55.915 24.0775C57.9417 26.1008 59.5458 28.4817 60.7275 31.22C61.9092 33.9583 62.5 36.8825 62.5 39.9925C62.5 43.1025 61.91 46.0275 60.73 48.7675C59.55 51.5075 57.9467 53.89 55.92 55.915C53.8933 57.94 51.5133 59.5442 48.78 60.7275C46.0467 61.9108 43.1225 62.5017 40.0075 62.5ZM40 60C45.5833 60 50.3125 58.0625 54.1875 54.1875C58.0625 50.3125 60 45.5833 60 40C60 34.4167 58.0625 29.6875 54.1875 25.8125C50.3125 21.9375 45.5833 20 40 20C34.4167 20 29.6875 21.9375 25.8125 25.8125C21.9375 29.6875 20 34.4167 20 40C20 45.5833 21.9375 50.3125 25.8125 54.1875C29.6875 58.0625 34.4167 60 40 60Z" fill="#8C3CFC"/>
</svg>
