<svg width="92" height="92" viewBox="0 0 92 92" fill="none" xmlns="http://www.w3.org/2000/svg">
<rect x="0.5" width="91" height="92" rx="18" fill="#E8E2FA"/>
<path d="M55.0529 42.8635C55.3404 42.576 55.5019 42.186 55.5019 41.7794C55.5019 41.3728 55.3404 40.9828 55.0529 40.6953C54.7653 40.4077 54.3754 40.2462 53.9688 40.2462C53.5621 40.2462 53.1722 40.4077 52.8846 40.6953L44.7812 48.8017L41.2716 45.289C41.1293 45.1466 40.9602 45.0337 40.7742 44.9567C40.5882 44.8796 40.3888 44.84 40.1875 44.84C39.9862 44.84 39.7868 44.8796 39.6008 44.9567C39.4148 45.0337 39.2457 45.1466 39.1034 45.289C38.961 45.4314 38.8481 45.6004 38.771 45.7864C38.694 45.9724 38.6543 46.1718 38.6543 46.3731C38.6543 46.5745 38.694 46.7739 38.771 46.9599C38.8481 47.1459 38.961 47.3149 39.1034 47.4573L43.6971 52.051C43.8394 52.1936 44.0083 52.3068 44.1944 52.3839C44.3804 52.4611 44.5798 52.5009 44.7812 52.5009C44.9827 52.5009 45.1821 52.4611 45.3681 52.3839C45.5542 52.3068 45.7231 52.1936 45.8654 52.051L55.0529 42.8635ZM47.3966 28.4483C47.1095 28.1613 46.7201 28 46.314 28C45.908 28 45.5186 28.1613 45.2314 28.4483C41.4247 32.2489 37.2169 34.1231 32.5312 34.1231C32.1251 34.1231 31.7357 34.2845 31.4485 34.5716C31.1613 34.8588 31 35.2483 31 35.6544V44.845C31 54.7031 36.0256 61.4039 45.8286 64.6685C46.1427 64.7731 46.4823 64.7731 46.7964 64.6685C56.5964 61.4039 61.625 54.7031 61.625 44.845V35.6544C61.625 35.2483 61.4637 34.8588 61.1765 34.5716C60.8893 34.2845 60.4999 34.1231 60.0938 34.1231C55.4051 34.1231 51.1941 32.255 47.3966 28.4483ZM34.0625 37.1244C38.595 36.7814 42.6804 34.901 46.3125 31.6364C49.9416 34.901 54.03 36.7814 58.5625 37.1244V44.8419C58.5625 49.2335 57.4508 52.6972 55.4357 55.3891C53.4818 57.9984 50.5081 60.1146 46.3125 61.5968C42.1169 60.1176 39.1432 57.9984 37.1893 55.3891C35.1742 52.6972 34.0625 49.2366 34.0625 44.845V37.1244Z" fill="#8C3CFC"/>
</svg>
