<svg width="79" height="105" viewBox="0 0 79 105" fill="none" xmlns="http://www.w3.org/2000/svg">
<path d="M43.8257 40.9863C44.5498 38.8206 47.6173 38.8206 48.3414 40.9863L52.5872 53.6979C53.5218 56.4922 55.0963 59.0311 57.1861 61.1134C59.2759 63.1957 61.8234 64.764 64.6268 65.6942L77.3708 69.927C79.5431 70.6489 79.5431 73.707 77.3708 74.4289L64.6202 78.6618C61.8174 79.5934 59.2707 81.1632 57.182 83.2466C55.0934 85.33 53.5202 87.8698 52.5872 90.6646L48.3414 103.37C48.1853 103.844 47.883 104.257 47.4775 104.55C47.072 104.842 46.5842 105 46.0836 105C45.5829 105 45.0951 104.842 44.6896 104.55C44.2842 104.257 43.9818 103.844 43.8257 103.37L39.5799 90.6581C38.646 87.8644 37.0725 85.326 34.9839 83.2438C32.8953 81.1615 30.3491 79.5928 27.5469 78.6618L14.7963 74.4289C14.3207 74.2733 13.9065 73.9719 13.6128 73.5676C13.3191 73.1634 13.161 72.6771 13.161 72.178C13.161 71.6789 13.3191 71.1925 13.6128 70.7883C13.9065 70.3841 14.3207 70.0827 14.7963 69.927L27.5469 65.6942C30.3491 64.7632 32.8953 63.1944 34.9839 61.1122C37.0725 59.03 38.646 56.4915 39.5799 53.6979L43.8257 40.9863ZM18.397 7.52395C18.4914 7.23976 18.6733 6.99245 18.9167 6.81717C19.1601 6.64188 19.4528 6.54754 19.7531 6.54754C20.0533 6.54754 20.346 6.64188 20.5894 6.81717C20.8329 6.99245 21.0147 7.23976 21.1091 7.52395L23.6566 15.1496C24.7954 18.549 27.4679 21.2134 30.8777 22.3487L38.5267 24.8884C38.8118 24.9825 39.0598 25.1638 39.2357 25.4065C39.4115 25.6492 39.5061 25.9409 39.5061 26.2403C39.5061 26.5397 39.4115 26.8314 39.2357 27.0741C39.0598 27.3168 38.8118 27.4981 38.5267 27.5922L30.8777 30.1319C29.195 30.6886 27.666 31.6294 26.4123 32.8792C25.1587 34.129 24.215 35.6534 23.6566 37.331L21.1091 44.9566C21.0147 45.2408 20.8329 45.4881 20.5894 45.6634C20.346 45.8387 20.0533 45.933 19.7531 45.933C19.4528 45.933 19.1601 45.8387 18.9167 45.6634C18.6733 45.4881 18.4914 45.2408 18.397 44.9566L15.8496 37.331C15.2911 35.6534 14.3475 34.129 13.0938 32.8792C11.8402 31.6294 10.3111 30.6886 8.62842 30.1319L0.97941 27.5922C0.694345 27.4981 0.446278 27.3168 0.270456 27.0741C0.0946342 26.8314 0 26.5397 0 26.2403C0 25.9409 0.0946342 25.6492 0.270456 25.4065C0.446278 25.1638 0.694345 24.9825 0.97941 24.8884L8.62842 22.3487C10.3111 21.792 11.8402 20.8512 13.0938 19.6014C14.3475 18.3515 15.2911 16.8272 15.8496 15.1496L18.397 7.52395ZM64.9296 0.639864C64.9946 0.453004 65.1164 0.290973 65.278 0.176297C65.4396 0.0616215 65.6331 0 65.8315 0C66.0298 0 66.2233 0.0616215 66.3849 0.176297C66.5465 0.290973 66.6683 0.453004 66.7333 0.639864L68.4316 5.71926C69.1886 7.98989 70.9725 9.76834 73.2501 10.523L78.345 12.2162C78.5325 12.2809 78.695 12.4023 78.81 12.5635C78.925 12.7246 78.9868 12.9175 78.9868 13.1152C78.9868 13.313 78.925 13.5059 78.81 13.667C78.695 13.8281 78.5325 13.9495 78.345 14.0143L73.2501 15.7074C72.1286 16.0815 71.1097 16.7101 70.2735 17.5437C69.4373 18.3773 68.8068 19.3932 68.4316 20.5112L66.7333 25.5906C66.6683 25.7775 66.5465 25.9395 66.3849 26.0542C66.2233 26.1688 66.0298 26.2305 65.8315 26.2305C65.6331 26.2305 65.4396 26.1688 65.278 26.0542C65.1164 25.9395 64.9946 25.7775 64.9296 25.5906L63.2313 20.5112C62.8561 19.3932 62.2256 18.3773 61.3894 17.5437C60.5532 16.7101 59.5343 16.0815 58.4128 15.7074L53.3245 14.0143C53.137 13.9495 52.9745 13.8281 52.8595 13.667C52.7444 13.5059 52.6826 13.313 52.6826 13.1152C52.6826 12.9175 52.7444 12.7246 52.8595 12.5635C52.9745 12.4023 53.137 12.2809 53.3245 12.2162L58.4194 10.523C60.697 9.76834 62.4809 7.98989 63.2379 5.71926L64.9296 0.639864Z" fill="white"/>
</svg>
